<?xml version="1.0" encoding="UTF-8" standalone="no"?>
<!DOCTYPE svg PUBLIC "-//W3C//DTD SVG 1.1//EN"
 "http://www.w3.org/Graphics/SVG/1.1/DTD/svg11.dtd">
<!-- Generated by graphviz version 12.2.0 (20241103.1931)
 -->
<!-- Title: dependency&#45;cruiser output Pages: 1 -->
<svg width="245pt" height="144pt"
 viewBox="0.00 0.00 244.50 144.00" xmlns="http://www.w3.org/2000/svg" xmlns:xlink="http://www.w3.org/1999/xlink">
<g id="graph0" class="graph" transform="scale(1 1) rotate(0) translate(4 140)">
<title>dependency&#45;cruiser output</title>
<polygon fill="white" stroke="none" points="-4,4 -4,-140 240.5,-140 240.5,4 -4,4"/>
<g id="clust1" class="cluster">
<title>cluster_src</title>
<path fill="#ffffff" stroke="black" stroke-width="2" d="M20,-8C20,-8 216.5,-8 216.5,-8 222.5,-8 228.5,-14 228.5,-20 228.5,-20 228.5,-116 228.5,-116 228.5,-122 222.5,-128 216.5,-128 216.5,-128 20,-128 20,-128 14,-128 8,-122 8,-116 8,-116 8,-20 8,-20 8,-14 14,-8 20,-8"/>
<text text-anchor="middle" x="118.25" y="-115.45" font-family="Helvetica,sans-Serif" font-weight="bold" font-size="9.00">src</text>
</g>
<g id="clust2" class="cluster">
<title>cluster_src/components</title>
<path fill="#ffffff" stroke="black" stroke-width="2" d="M28,-16C28,-16 208.5,-16 208.5,-16 214.5,-16 220.5,-22 220.5,-28 220.5,-28 220.5,-90 220.5,-90 220.5,-96 214.5,-102 208.5,-102 208.5,-102 28,-102 28,-102 22,-102 16,-96 16,-90 16,-90 16,-28 16,-28 16,-22 22,-16 28,-16"/>
<text text-anchor="middle" x="118.25" y="-89.45" font-family="Helvetica,sans-Serif" font-weight="bold" font-size="9.00">components</text>
</g>
<g id="clust3" class="cluster">
<title>cluster_src/components/puzzle15</title>
<path fill="#ffffff" stroke="black" stroke-width="2" d="M36,-24C36,-24 200.5,-24 200.5,-24 206.5,-24 212.5,-30 212.5,-36 212.5,-36 212.5,-64 212.5,-64 212.5,-70 206.5,-76 200.5,-76 200.5,-76 36,-76 36,-76 30,-76 24,-70 24,-64 24,-64 24,-36 24,-36 24,-30 30,-24 36,-24"/>
<text text-anchor="middle" x="118.25" y="-63.45" font-family="Helvetica,sans-Serif" font-weight="bold" font-size="9.00">puzzle15</text>
</g>
<!-- src/components/puzzle15/puzzle&#45;15&#45;model.js -->
<g id="node1" class="node">
<title>src/components/puzzle15/puzzle&#45;15&#45;model.js</title>
<g id="a_node1"><a xlink:href="src/components/puzzle15/puzzle-15-model.js" xlink:title="puzzle&#45;15&#45;model.js">
<path fill="#ffffcc" stroke="black" d="M198.58,-49.88C198.58,-49.88 116.42,-49.88 116.42,-49.88 113.46,-49.88 110.5,-46.92 110.5,-43.96 110.5,-43.96 110.5,-38.04 110.5,-38.04 110.5,-35.08 113.46,-32.12 116.42,-32.12 116.42,-32.12 198.58,-32.12 198.58,-32.12 201.54,-32.12 204.5,-35.08 204.5,-38.04 204.5,-38.04 204.5,-43.96 204.5,-43.96 204.5,-46.92 201.54,-49.88 198.58,-49.88"/>
<text text-anchor="start" x="118.5" y="-37.33" font-family="Helvetica,sans-Serif" font-size="9.00">puzzle&#45;15&#45;model.js</text>
</a>
</g>
</g>
<!-- src/components/puzzle15/puzzle&#45;15.js -->
<g id="node2" class="node">
<title>src/components/puzzle15/puzzle&#45;15.js</title>
<g id="a_node2"><a xlink:href="src/components/puzzle15/puzzle-15.js" xlink:title="puzzle&#45;15.js">
<path fill="#ffffcc" stroke="black" d="M91.58,-49.88C91.58,-49.88 37.92,-49.88 37.92,-49.88 34.96,-49.88 32,-46.92 32,-43.96 32,-43.96 32,-38.04 32,-38.04 32,-35.08 34.96,-32.12 37.92,-32.12 37.92,-32.12 91.58,-32.12 91.58,-32.12 94.54,-32.12 97.5,-35.08 97.5,-38.04 97.5,-38.04 97.5,-43.96 97.5,-43.96 97.5,-46.92 94.54,-49.88 91.58,-49.88"/>
<text text-anchor="start" x="40" y="-37.33" font-family="Helvetica,sans-Serif" font-size="9.00">puzzle&#45;15.js</text>
</a>
</g>
</g>
<!-- src/components/puzzle15/puzzle&#45;15.js&#45;&gt;src/components/puzzle15/puzzle&#45;15&#45;model.js -->
<g id="edge1" class="edge">
<title>src/components/puzzle15/puzzle&#45;15.js&#45;&gt;src/components/puzzle15/puzzle&#45;15&#45;model.js</title>
<path fill="none" stroke="#000000" stroke-width="2" stroke-opacity="0.200000" d="M97.75,-41C98.86,-41 100,-41 101.14,-41"/>
<polygon fill="#000000" fill-opacity="0.200000" stroke="#000000" stroke-width="2" stroke-opacity="0.200000" points="100.97,-43.1 106.97,-41 100.97,-38.9 100.97,-43.1"/>
</g>
</g>
</svg>
